name rise49.5252peak65.1548fall88.8305.mot
datacolumns 19
datarows 20
range 3.19497900000000 3.22665100000000
endheader
time	ground_force1_vx	ground_force1_vy	ground_force1_vz	ground_force1_px	ground_force1_py	ground_force1_pz	ground_force2_vx	ground_force2_vy	ground_force2_vz	ground_force2_px	ground_force2_py	ground_force2_pz	ground_torque1_x	ground_torque1_y	ground_torque1_z	ground_torque2_x	ground_torque2_y	ground_torque2_z	
3.19497900000000	-7.81858600000000	40.80585900000000	-9.76985100000000	0.33211400000000	0.00000000000000	0.11725400000000	-40.37636200000000	815.65582900000004	-59.41607400000000	0.16864100000000	0.00000000000000	-0.07757400000000	0.00000000000000	-6.13420400000000	0.00000000000000	0.00000000000000	-26.03006700000000	0.00000000000000	
3.19664700000000	-8.74593400000000	47.75547200000000	-11.00786500000000	0.33710100000000	0.00000000000000	0.11814900000000	-40.99416000000000	813.94819800000005	-59.20835600000000	0.16786700000000	0.00000000000000	-0.07751200000000	0.00000000000000	-6.97032600000000	0.00000000000000	0.00000000000000	-25.92900400000000	0.00000000000000	
3.19831900000000	-9.57022500000000	54.76866700000000	-12.14037600000000	0.34163400000000	0.00000000000000	0.11896500000000	-41.62613500000000	812.10707100000002	-58.97759000000000	0.16710100000000	0.00000000000000	-0.07744600000000	0.00000000000000	-7.74949100000000	0.00000000000000	0.00000000000000	-25.82508500000000	0.00000000000000	
3.19998100000000	-10.26995000000000	61.75137700000000	-13.14146400000000	0.34578100000000	0.00000000000000	0.11971300000000	-42.27235200000000	810.13116500000001	-58.72354100000000	0.16634200000000	0.00000000000000	-0.07737600000000	0.00000000000000	-8.45384300000000	0.00000000000000	0.00000000000000	-25.71838400000000	0.00000000000000	
3.20165000000000	-10.83087000000000	68.63220900000000	-13.99373600000000	0.34960000000000	0.00000000000000	0.12040600000000	-42.93279500000000	808.01920500000006	-58.44599700000000	0.16559000000000	0.00000000000000	-0.07730200000000	0.00000000000000	-9.07091200000000	0.00000000000000	0.00000000000000	-25.60897100000000	0.00000000000000	
3.20331700000000	-11.24608900000000	75.36458200000000	-14.68846800000000	0.35313600000000	0.00000000000000	0.12104900000000	-43.60736800000000	805.76991699999996	-58.14476700000000	0.16484600000000	0.00000000000000	-0.07722500000000	0.00000000000000	-9.59382000000000	0.00000000000000	0.00000000000000	-25.49690300000000	0.00000000000000	
3.20498600000000	-11.51551200000000	81.92647200000000	-15.22501000000000	0.35642500000000	0.00000000000000	0.12165100000000	-44.29589200000000	803.38203399999998	-57.81968300000000	0.16410900000000	0.00000000000000	-0.07714300000000	0.00000000000000	-10.02099700000000	0.00000000000000	0.00000000000000	-25.38222900000000	0.00000000000000	
3.20664800000000	-11.64485100000000	88.31817300000000	-15.60964300000000	0.35949800000000	0.00000000000000	0.12221700000000	-44.99809600000000	800.85428899999999	-57.47059900000000	0.16337900000000	0.00000000000000	-0.07705700000000	0.00000000000000	-10.35551000000000	0.00000000000000	0.00000000000000	-25.26498800000000	0.00000000000000	
3.20831600000000	-11.64431800000000	94.55862300000000	-15.85405400000000	0.36238200000000	0.00000000000000	0.12275100000000	-45.71362300000000	798.18542300000001	-57.09739600000000	0.16265800000000	0.00000000000000	-0.07696800000000	0.00000000000000	-10.60412200000000	0.00000000000000	0.00000000000000	-25.14520800000000	0.00000000000000	
3.20998000000000	-11.52719300000000	100.68082699999999	-15.97364200000000	0.36509800000000	0.00000000000000	0.12325800000000	-46.44202200000000	795.37418000000002	-56.69998300000000	0.16194500000000	0.00000000000000	-0.07687400000000	0.00000000000000	-10.77621100000000	0.00000000000000	0.00000000000000	-25.02290700000000	0.00000000000000	
3.21165300000000	-11.30838200000000	106.72693099999999	-15.98581300000000	0.36766500000000	0.00000000000000	0.12374000000000	-47.18275100000000	792.41931199999999	-56.27829500000000	0.16123900000000	0.00000000000000	-0.07677600000000	0.00000000000000	-10.88265700000000	0.00000000000000	0.00000000000000	-24.89809200000000	0.00000000000000	
3.21331500000000	-11.00310900000000	112.74340100000001	-15.90841000000000	0.37009700000000	0.00000000000000	0.12419900000000	-47.93517100000000	789.31957999999997	-55.83229600000000	0.16054300000000	0.00000000000000	-0.07667400000000	0.00000000000000	-10.93480400000000	0.00000000000000	0.00000000000000	-24.77076000000000	0.00000000000000	
3.21497800000000	-10.62579600000000	118.77667800000000	-15.75837600000000	0.37240800000000	0.00000000000000	0.12464000000000	-48.69854800000000	786.07375800000000	-55.36198500000000	0.15985500000000	0.00000000000000	-0.07656800000000	0.00000000000000	-10.94355800000000	0.00000000000000	0.00000000000000	-24.64089500000000	0.00000000000000	
3.21664800000000	-10.18921600000000	124.86956400000000	-15.55071900000000	0.37461000000000	0.00000000000000	0.12506300000000	-49.47205300000000	782.68063299999994	-54.86738900000000	0.15917600000000	0.00000000000000	-0.07645700000000	0.00000000000000	-10.91867200000000	0.00000000000000	0.00000000000000	-24.50847100000000	0.00000000000000	
3.21831400000000	-9.70391600000000	131.05849300000000	-15.29780400000000	0.37671200000000	0.00000000000000	0.12546900000000	-50.25475700000000	779.13901099999998	-54.34857200000000	0.15850600000000	0.00000000000000	-0.07634200000000	0.00000000000000	-10.86824500000000	0.00000000000000	0.00000000000000	-24.37345100000000	0.00000000000000	
3.21998500000000	-9.17791300000000	137.37174300000001	-15.00897200000000	0.37872300000000	0.00000000000000	0.12586200000000	-51.04563800000000	775.44772100000000	-53.80563200000000	0.15784500000000	0.00000000000000	-0.07622300000000	0.00000000000000	-10.79843600000000	0.00000000000000	0.00000000000000	-24.23578900000000	0.00000000000000	
3.22164600000000	-8.61663800000000	143.82854800000001	-14.69045500000000	0.38064900000000	0.00000000000000	0.12624200000000	-51.84357600000000	771.60561800000005	-53.23870300000000	0.15719400000000	0.00000000000000	-0.07610000000000	0.00000000000000	-10.71337100000000	0.00000000000000	0.00000000000000	-24.09542600000000	0.00000000000000	
3.22332000000000	-8.02309500000000	150.43902399999999	-14.34553300000000	0.38249800000000	0.00000000000000	0.12660900000000	-52.64735500000000	767.61158499999999	-52.64796000000000	0.15655300000000	0.00000000000000	-0.07597300000000	0.00000000000000	-10.61522600000000	0.00000000000000	0.00000000000000	-23.95229300000000	0.00000000000000	
3.22498200000000	-7.39816700000000	157.20475700000000	-13.97489500000000	0.38427400000000	0.00000000000000	0.12696600000000	-53.45566800000000	763.46454500000004	-52.03361400000000	0.15592200000000	0.00000000000000	-0.07584100000000	0.00000000000000	-10.50443600000000	0.00000000000000	0.00000000000000	-23.80631100000000	0.00000000000000	
3.22665100000000	-6.74103300000000	164.11989199999999	-13.57712200000000	0.38598100000000	0.00000000000000	0.12731200000000	-54.26711400000000	759.16345799999999	-51.39591900000000	0.15530100000000	0.00000000000000	-0.07570500000000	0.00000000000000	-10.38000100000000	0.00000000000000	0.00000000000000	-23.65739400000000	0.00000000000000	
